<svg xmlns="http://www.w3.org/2000/svg" width="1400" height="1400" viewBox="0 0 1400 1400">
<rect width="100%" height="100%" fill="white"/>
<style>text{font-family:Georgia,"Times New Roman",serif;fill:#111}.sans{font-family:Arial,Helvetica,sans-serif}.symbol{font-family:"Arial Unicode MS","Segoe UI Symbol","Noto Sans Symbols 2","Apple Symbols",serif;font-variant-emoji:text;fill:#111}</style>
<text x="700" y="72" text-anchor="middle" font-size="38" font-weight="700">ISO 2027-W24 Planet Finder</text>
<text x="700" y="110" text-anchor="middle" font-size="23">Greek / Symbols · Monday, June 14, 2027 · 00:00 UTC</text>
<circle cx="700" cy="700" r="560" fill="none" stroke="#111" stroke-width="4"/>
<circle cx="700" cy="700" r="430" fill="none" stroke="#111" stroke-width="2"/>
<line x1="270.0" y1="700.0" x2="140.0" y2="700.0" stroke="#111" stroke-width="2"/>
<line x1="327.6" y1="915.0" x2="215.0" y2="980.0" stroke="#111" stroke-width="2"/>
<line x1="485.0" y1="1072.4" x2="420.0" y2="1185.0" stroke="#111" stroke-width="2"/>
<line x1="700.0" y1="1130.0" x2="700.0" y2="1260.0" stroke="#111" stroke-width="2"/>
<line x1="915.0" y1="1072.4" x2="980.0" y2="1185.0" stroke="#111" stroke-width="2"/>
<line x1="1072.4" y1="915.0" x2="1185.0" y2="980.0" stroke="#111" stroke-width="2"/>
<line x1="1130.0" y1="700.0" x2="1260.0" y2="700.0" stroke="#111" stroke-width="2"/>
<line x1="1072.4" y1="485.0" x2="1185.0" y2="420.0" stroke="#111" stroke-width="2"/>
<line x1="915.0" y1="327.6" x2="980.0" y2="215.0" stroke="#111" stroke-width="2"/>
<line x1="700.0" y1="270.0" x2="700.0" y2="140.0" stroke="#111" stroke-width="2"/>
<line x1="485.0" y1="327.6" x2="420.0" y2="215.0" stroke="#111" stroke-width="2"/>
<line x1="327.6" y1="485.0" x2="215.0" y2="420.0" stroke="#111" stroke-width="2"/>
<text class="symbol" x="221.9" y="836.1" text-anchor="middle" font-size="48">♈︎</text>
<text class="symbol" x="350.0" y="1058.0" text-anchor="middle" font-size="48">♉︎</text>
<text class="symbol" x="571.9" y="1186.1" text-anchor="middle" font-size="48">♊︎</text>
<text class="symbol" x="828.1" y="1186.1" text-anchor="middle" font-size="48">♋︎</text>
<text class="symbol" x="1050.0" y="1058.0" text-anchor="middle" font-size="48">♌︎</text>
<text class="symbol" x="1178.1" y="836.1" text-anchor="middle" font-size="48">♍︎</text>
<text class="symbol" x="1178.1" y="579.9" text-anchor="middle" font-size="48">♎︎</text>
<text class="symbol" x="1050.0" y="358.0" text-anchor="middle" font-size="48">♏︎</text>
<text class="symbol" x="828.1" y="229.9" text-anchor="middle" font-size="48">♐︎</text>
<text class="symbol" x="571.9" y="229.9" text-anchor="middle" font-size="48">♑︎</text>
<text class="symbol" x="350.0" y="358.0" text-anchor="middle" font-size="48">♒︎</text>
<text class="symbol" x="221.9" y="579.9" text-anchor="middle" font-size="48">♓︎</text>
<text x="112" y="708" text-anchor="end" font-size="20" class="sans">0° Aries</text>
<polyline points="646.4,1121.6 634.5,906.8" fill="none" stroke="#777" stroke-width="1.5" stroke-linejoin="round" stroke-linecap="round"/>
<circle cx="646.4" cy="1121.6" r="3.5" fill="#111"/>
<polyline points="1087.0,524.3 1043.6,524.3 1043.6,559.5" fill="none" stroke="#777" stroke-width="1.5" stroke-linejoin="round" stroke-linecap="round"/>
<circle cx="1087.0" cy="524.3" r="3.5" fill="#111"/>
<polyline points="744.3,1122.7 744.3,984.2 806.7,984.2" fill="none" stroke="#777" stroke-width="1.5" stroke-linejoin="round" stroke-linecap="round"/>
<circle cx="744.3" cy="1122.7" r="3.5" fill="#111"/>
<polyline points="531.8,1090.3 440.3,860.3 522.2,841.3" fill="none" stroke="#777" stroke-width="1.5" stroke-linejoin="round" stroke-linecap="round"/>
<circle cx="531.8" cy="1090.3" r="3.5" fill="#111"/>
<polyline points="1107.1,822.1 1059.7,822.1 1059.7,797.7" fill="none" stroke="#777" stroke-width="1.5" stroke-linejoin="round" stroke-linecap="round"/>
<circle cx="1107.1" cy="822.1" r="3.5" fill="#111"/>
<polyline points="1036.1,960.1 807.4,871.6 805.5,878.4" fill="none" stroke="#777" stroke-width="1.5" stroke-linejoin="round" stroke-linecap="round"/>
<circle cx="1036.1" cy="960.1" r="3.5" fill="#111"/>
<polyline points="315.7,881.4 358.5,881.4 358.5,845.1" fill="none" stroke="#777" stroke-width="1.5" stroke-linejoin="round" stroke-linecap="round"/>
<circle cx="315.7" cy="881.4" r="3.5" fill="#111"/>
<polyline points="532.5,1090.6 532.5,941.4 524.0,941.4" fill="none" stroke="#777" stroke-width="1.5" stroke-linejoin="round" stroke-linecap="round"/>
<circle cx="532.5" cy="1090.6" r="3.5" fill="#111"/>
<polyline points="277.7,748.0 319.1,748.0 319.1,658.9" fill="none" stroke="#777" stroke-width="1.5" stroke-linejoin="round" stroke-linecap="round"/>
<circle cx="277.7" cy="748.0" r="3.5" fill="#111"/>
<polyline points="968.2,1029.7 722.0,1004.4 721.1,949.4" fill="none" stroke="#777" stroke-width="1.5" stroke-linejoin="round" stroke-linecap="round"/>
<circle cx="968.2" cy="1029.7" r="3.5" fill="#111"/>
<circle cx="632.6" cy="872.9" r="34" fill="white" stroke="#111" stroke-width="1.5"/>
<text class="symbol" x="632.6" y="886.9" text-anchor="middle" font-size="46">☉︎</text>
<circle cx="1009.6" cy="559.5" r="34" fill="white" stroke="#111" stroke-width="1.5"/>
<text class="symbol" x="1009.6" y="573.5" text-anchor="middle" font-size="46">☽︎</text>
<circle cx="806.7" cy="950.2" r="34" fill="white" stroke="#111" stroke-width="1.5"/>
<text class="symbol" x="806.7" y="964.2" text-anchor="middle" font-size="46">☿︎</text>
<circle cx="555.3" cy="833.6" r="34" fill="white" stroke="#111" stroke-width="1.5"/>
<text class="symbol" x="555.3" y="847.6" text-anchor="middle" font-size="46">♀︎</text>
<circle cx="1025.7" cy="797.7" r="34" fill="white" stroke="#111" stroke-width="1.5"/>
<text class="symbol" x="1025.7" y="811.7" text-anchor="middle" font-size="46">♂︎</text>
<circle cx="814.8" cy="845.7" r="34" fill="white" stroke="#111" stroke-width="1.5"/>
<text class="symbol" x="814.8" y="859.7" text-anchor="middle" font-size="46">♃︎</text>
<circle cx="392.5" cy="845.1" r="34" fill="white" stroke="#111" stroke-width="1.5"/>
<text class="symbol" x="392.5" y="859.1" text-anchor="middle" font-size="46">♄︎</text>
<circle cx="524.0" cy="907.4" r="34" fill="white" stroke="#111" stroke-width="1.5"/>
<text class="symbol" x="524.0" y="921.4" text-anchor="middle" font-size="46">♅︎</text>
<circle cx="353.1" cy="658.9" r="34" fill="white" stroke="#111" stroke-width="1.5"/>
<text class="symbol" x="353.1" y="672.9" text-anchor="middle" font-size="46">♆︎</text>
<circle cx="720.5" cy="915.4" r="34" fill="white" stroke="#111" stroke-width="1.5"/>
<text class="symbol" x="720.5" y="929.4" text-anchor="middle" font-size="46">⚳︎</text>
<text x="700" y="682" text-anchor="middle" font-size="28" font-weight="700">Tropical ecliptic longitude</text>
<text x="700" y="722" text-anchor="middle" font-size="22">0° Aries at 9:00 · zodiac increases counterclockwise</text>
<text x="700" y="757" text-anchor="middle" font-size="22">12 equal sectors · 30° each</text>
</svg>