<svg xmlns="http://www.w3.org/2000/svg" width="1400" height="1400" viewBox="0 0 1400 1400">
<rect width="100%" height="100%" fill="white"/>
<style>text{font-family:Georgia,"Times New Roman",serif;fill:#111}.sans{font-family:Arial,Helvetica,sans-serif}.symbol{font-family:"Arial Unicode MS","Segoe UI Symbol","Noto Sans Symbols 2","Apple Symbols",serif;font-variant-emoji:text;fill:#111}</style>
<text x="700" y="72" text-anchor="middle" font-size="38" font-weight="700">ISO 2027-W05 Planet Finder</text>
<text x="700" y="110" text-anchor="middle" font-size="23">Latin · Monday, February 1, 2027 · 00:00 UTC</text>
<circle cx="700" cy="700" r="560" fill="none" stroke="#111" stroke-width="4"/>
<circle cx="700" cy="700" r="430" fill="none" stroke="#111" stroke-width="2"/>
<line x1="270.0" y1="700.0" x2="140.0" y2="700.0" stroke="#111" stroke-width="2"/>
<line x1="327.6" y1="915.0" x2="215.0" y2="980.0" stroke="#111" stroke-width="2"/>
<line x1="485.0" y1="1072.4" x2="420.0" y2="1185.0" stroke="#111" stroke-width="2"/>
<line x1="700.0" y1="1130.0" x2="700.0" y2="1260.0" stroke="#111" stroke-width="2"/>
<line x1="915.0" y1="1072.4" x2="980.0" y2="1185.0" stroke="#111" stroke-width="2"/>
<line x1="1072.4" y1="915.0" x2="1185.0" y2="980.0" stroke="#111" stroke-width="2"/>
<line x1="1130.0" y1="700.0" x2="1260.0" y2="700.0" stroke="#111" stroke-width="2"/>
<line x1="1072.4" y1="485.0" x2="1185.0" y2="420.0" stroke="#111" stroke-width="2"/>
<line x1="915.0" y1="327.6" x2="980.0" y2="215.0" stroke="#111" stroke-width="2"/>
<line x1="700.0" y1="270.0" x2="700.0" y2="140.0" stroke="#111" stroke-width="2"/>
<line x1="485.0" y1="327.6" x2="420.0" y2="215.0" stroke="#111" stroke-width="2"/>
<line x1="327.6" y1="485.0" x2="215.0" y2="420.0" stroke="#111" stroke-width="2"/>
<text x="221.9" y="836.1" text-anchor="middle" font-size="24">Aries</text>
<text x="350.0" y="1058.0" text-anchor="middle" font-size="24">Taurus</text>
<text x="571.9" y="1186.1" text-anchor="middle" font-size="24">Gemini</text>
<text x="828.1" y="1186.1" text-anchor="middle" font-size="24">Cancer</text>
<text x="1050.0" y="1058.0" text-anchor="middle" font-size="24">Leo</text>
<text x="1178.1" y="836.1" text-anchor="middle" font-size="24">Virgo</text>
<text x="1178.1" y="579.9" text-anchor="middle" font-size="24">Libra</text>
<text x="1050.0" y="358.0" text-anchor="middle" font-size="24">Scorpio</text>
<text x="828.1" y="229.9" text-anchor="middle" font-size="24">Sagittarius</text>
<text x="571.9" y="229.9" text-anchor="middle" font-size="24">Capricorn</text>
<text x="350.0" y="358.0" text-anchor="middle" font-size="24">Aquarius</text>
<text x="221.9" y="579.9" text-anchor="middle" font-size="24">Pisces</text>
<text x="112" y="708" text-anchor="end" font-size="20" class="sans">0° Aries</text>
<polyline points="416.3,383.6 479.0,401.2 476.0,406.0" fill="none" stroke="#777" stroke-width="1.5" stroke-linejoin="round" stroke-linecap="round"/>
<circle cx="416.3" cy="383.6" r="3.5" fill="#111"/>
<polyline points="842.5,299.6 905.6,539.7 930.0,535.3" fill="none" stroke="#777" stroke-width="1.5" stroke-linejoin="round" stroke-linecap="round"/>
<circle cx="842.5" cy="299.6" r="3.5" fill="#111"/>
<polyline points="332.2,487.1 405.7,487.1 405.7,503.7" fill="none" stroke="#777" stroke-width="1.5" stroke-linejoin="round" stroke-linecap="round"/>
<circle cx="332.2" cy="487.1" r="3.5" fill="#111"/>
<polyline points="722.1,275.6 678.2,512.4" fill="none" stroke="#777" stroke-width="1.5" stroke-linejoin="round" stroke-linecap="round"/>
<circle cx="722.1" cy="275.6" r="3.5" fill="#111"/>
<polyline points="1092.4,863.2 1069.3,853.6 1042.4,639.6" fill="none" stroke="#777" stroke-width="1.5" stroke-linejoin="round" stroke-linecap="round"/>
<circle cx="1092.4" cy="863.2" r="3.5" fill="#111"/>
<polyline points="1041.0,953.7 851.4,877.7" fill="none" stroke="#777" stroke-width="1.5" stroke-linejoin="round" stroke-linecap="round"/>
<circle cx="1041.0" cy="953.7" r="3.5" fill="#111"/>
<polyline points="281.8,775.7 436.0,775.7 436.0,915.0" fill="none" stroke="#777" stroke-width="1.5" stroke-linejoin="round" stroke-linecap="round"/>
<circle cx="281.8" cy="775.7" r="3.5" fill="#111"/>
<polyline points="498.5,1074.2 498.5,1017.0 470.3,1017.0" fill="none" stroke="#777" stroke-width="1.5" stroke-linejoin="round" stroke-linecap="round"/>
<circle cx="498.5" cy="1074.2" r="3.5" fill="#111"/>
<polyline points="275.3,717.2 485.8,848.8 479.8,849.0" fill="none" stroke="#777" stroke-width="1.5" stroke-linejoin="round" stroke-linecap="round"/>
<circle cx="275.3" cy="717.2" r="3.5" fill="#111"/>
<polyline points="789.0,1115.6 789.0,1045.6 779.5,1045.6" fill="none" stroke="#777" stroke-width="1.5" stroke-linejoin="round" stroke-linecap="round"/>
<circle cx="789.0" cy="1115.6" r="3.5" fill="#111"/>
<rect x="404.7" y="406.0" width="110.0" height="52.0" rx="10" fill="white" stroke="#111" stroke-width="1.5"/>
<text x="459.7" y="439.0" text-anchor="middle" font-size="18">Sun</text>
<rect x="930.0" y="499.4" width="110.0" height="52.0" rx="10" fill="white" stroke="#111" stroke-width="1.5"/>
<text x="985.0" y="532.4" text-anchor="middle" font-size="18">Moon</text>
<rect x="339.7" y="503.7" width="132.0" height="52.0" rx="10" fill="white" stroke="#111" stroke-width="1.5"/>
<text x="405.7" y="536.7" text-anchor="middle" font-size="18">Mercury</text>
<rect x="618.4" y="512.4" width="110.0" height="52.0" rx="10" fill="white" stroke="#111" stroke-width="1.5"/>
<text x="673.4" y="545.4" text-anchor="middle" font-size="18">Venus</text>
<rect x="984.2" y="587.6" width="110.0" height="52.0" rx="10" fill="white" stroke="#111" stroke-width="1.5"/>
<text x="1039.2" y="620.6" text-anchor="middle" font-size="18">Mars</text>
<rect x="720.6" y="825.7" width="132.0" height="52.0" rx="10" fill="white" stroke="#111" stroke-width="1.5"/>
<text x="786.6" y="858.7" text-anchor="middle" font-size="18">Jupiter</text>
<rect x="436.0" y="889.0" width="118.0" height="52.0" rx="10" fill="white" stroke="#111" stroke-width="1.5"/>
<text x="495.0" y="922.0" text-anchor="middle" font-size="18">Saturn</text>
<rect x="470.3" y="991.0" width="118.0" height="52.0" rx="10" fill="white" stroke="#111" stroke-width="1.5"/>
<text x="529.3" y="1024.0" text-anchor="middle" font-size="18">Uranus</text>
<rect x="479.8" y="820.4" width="132.0" height="52.0" rx="10" fill="white" stroke="#111" stroke-width="1.5"/>
<text x="545.8" y="853.4" text-anchor="middle" font-size="18">Neptune</text>
<rect x="724.5" y="1045.6" width="110.0" height="52.0" rx="10" fill="white" stroke="#111" stroke-width="1.5"/>
<text x="779.5" y="1078.6" text-anchor="middle" font-size="18">Ceres</text>
<text x="700" y="682" text-anchor="middle" font-size="28" font-weight="700">Tropical ecliptic longitude</text>
<text x="700" y="722" text-anchor="middle" font-size="22">0° Aries at 9:00 · zodiac increases counterclockwise</text>
<text x="700" y="757" text-anchor="middle" font-size="22">12 equal sectors · 30° each</text>
</svg>