<svg xmlns="http://www.w3.org/2000/svg" width="1400" height="1400" viewBox="0 0 1400 1400">
<rect width="100%" height="100%" fill="white"/>
<style>text{font-family:Georgia,"Times New Roman",serif;fill:#111!important;color:#111!important;-webkit-text-fill-color:#111!important}.sans{font-family:Arial,Helvetica,sans-serif}</style>
<text x="700" y="72" text-anchor="middle" font-size="38" font-weight="700">ISO 2026-W39 Planet Finder</text>
<text x="700" y="110" text-anchor="middle" font-size="23">Mixed / Learner · Monday, September 21, 2026 · 00:00 UTC</text>
<circle cx="700" cy="700" r="560" fill="none" stroke="#111" stroke-width="4"/>
<circle cx="700" cy="700" r="430" fill="none" stroke="#111" stroke-width="2"/>
<line x1="270.0" y1="700.0" x2="140.0" y2="700.0" stroke="#111" stroke-width="2"/>
<line x1="327.6" y1="915.0" x2="215.0" y2="980.0" stroke="#111" stroke-width="2"/>
<line x1="485.0" y1="1072.4" x2="420.0" y2="1185.0" stroke="#111" stroke-width="2"/>
<line x1="700.0" y1="1130.0" x2="700.0" y2="1260.0" stroke="#111" stroke-width="2"/>
<line x1="915.0" y1="1072.4" x2="980.0" y2="1185.0" stroke="#111" stroke-width="2"/>
<line x1="1072.4" y1="915.0" x2="1185.0" y2="980.0" stroke="#111" stroke-width="2"/>
<line x1="1130.0" y1="700.0" x2="1260.0" y2="700.0" stroke="#111" stroke-width="2"/>
<line x1="1072.4" y1="485.0" x2="1185.0" y2="420.0" stroke="#111" stroke-width="2"/>
<line x1="915.0" y1="327.6" x2="980.0" y2="215.0" stroke="#111" stroke-width="2"/>
<line x1="700.0" y1="270.0" x2="700.0" y2="140.0" stroke="#111" stroke-width="2"/>
<line x1="485.0" y1="327.6" x2="420.0" y2="215.0" stroke="#111" stroke-width="2"/>
<line x1="327.6" y1="485.0" x2="215.0" y2="420.0" stroke="#111" stroke-width="2"/>
<text x="221.9" y="838.1" text-anchor="middle" font-size="22">♈︎ Aries</text>
<text x="350.0" y="1060.0" text-anchor="middle" font-size="22">♉︎ Taurus</text>
<text x="571.9" y="1188.1" text-anchor="middle" font-size="22">♊︎ Gemini</text>
<text x="828.1" y="1188.1" text-anchor="middle" font-size="22">♋︎ Cancer</text>
<text x="1050.0" y="1060.0" text-anchor="middle" font-size="22">♌︎ Leo</text>
<text x="1178.1" y="838.1" text-anchor="middle" font-size="22">♍︎ Virgo</text>
<text x="1178.1" y="581.9" text-anchor="middle" font-size="22">♎︎ Libra</text>
<text x="1050.0" y="360.0" text-anchor="middle" font-size="22">♏︎ Scorpio</text>
<text x="828.1" y="231.9" text-anchor="middle" font-size="22">♐︎ Sagittarius</text>
<text x="571.9" y="231.9" text-anchor="middle" font-size="22">♑︎ Capricorn</text>
<text x="350.0" y="360.0" text-anchor="middle" font-size="22">♒︎ Aquarius</text>
<text x="221.9" y="581.9" text-anchor="middle" font-size="22">♓︎ Pisces</text>
<text x="258.0" y="707.0" text-anchor="end" font-size="20" class="sans">0° Aries</text>
<polyline points="1124.8,714.5 872.1,495.8" fill="none" stroke="#777" stroke-width="1.5" stroke-linejoin="round" stroke-linecap="round"/>
<rect x="806.1" y="470.8" width="132.0" height="50.0" rx="10" fill="white" stroke="#111"/>
<text x="872.1" y="502.8" text-anchor="middle" font-size="18">☉︎ Sun</text>
<polyline points="545.2,304.2 568.9,364.7" fill="none" stroke="#777" stroke-width="1.5" stroke-linejoin="round" stroke-linecap="round"/>
<rect x="502.9" y="339.7" width="132.0" height="50.0" rx="10" fill="white" stroke="#111"/>
<text x="568.9" y="371.7" text-anchor="middle" font-size="18">☽︎ Moon</text>
<polyline points="1107.5,579.4 1078.8,587.9 1049.0,487.2 870.5,430.5" fill="none" stroke="#777" stroke-width="1.5" stroke-linejoin="round" stroke-linecap="round"/>
<rect x="791.0" y="405.5" width="159.0" height="50.0" rx="10" fill="white" stroke="#111"/>
<text x="870.5" y="437.5" text-anchor="middle" font-size="18">☿︎ Mercury</text>
<polyline points="1044.7,451.4 1020.4,468.9 959.0,383.8 820.5,354.2" fill="none" stroke="#777" stroke-width="1.5" stroke-linejoin="round" stroke-linecap="round"/>
<rect x="754.0" y="329.2" width="133.0" height="50.0" rx="10" fill="white" stroke="#111"/>
<text x="820.5" y="361.2" text-anchor="middle" font-size="18">♀︎ Venus</text>
<polyline points="884.7,1082.7 850.0,1010.7" fill="none" stroke="#777" stroke-width="1.5" stroke-linejoin="round" stroke-linecap="round"/>
<rect x="784.0" y="985.7" width="132.0" height="50.0" rx="10" fill="white" stroke="#111"/>
<text x="850.0" y="1017.7" text-anchor="middle" font-size="18">♂︎ Mars</text>
<polyline points="1014.5,985.8 922.0,901.8" fill="none" stroke="#777" stroke-width="1.5" stroke-linejoin="round" stroke-linecap="round"/>
<rect x="842.5" y="876.8" width="159.0" height="50.0" rx="10" fill="white" stroke="#111"/>
<text x="922.0" y="908.8" text-anchor="middle" font-size="18">♃︎ Jupiter</text>
<polyline points="284.8,790.9 495.8,959.7" fill="none" stroke="#777" stroke-width="1.5" stroke-linejoin="round" stroke-linecap="round"/>
<rect x="422.8" y="934.7" width="146.0" height="50.0" rx="10" fill="white" stroke="#111"/>
<text x="495.8" y="966.7" text-anchor="middle" font-size="18">♄︎ Saturn</text>
<polyline points="797.6,1113.6 790.7,1084.4 722.6,1100.5 755.1,933.6" fill="none" stroke="#777" stroke-width="1.5" stroke-linejoin="round" stroke-linecap="round"/>
<rect x="688.6" y="908.6" width="133.0" height="50.0" rx="10" fill="white" stroke="#111"/>
<text x="755.1" y="940.6" text-anchor="middle" font-size="18">⚳︎ Ceres</text>
<polyline points="524.8,1087.2 537.2,1059.9 600.9,1088.7 625.8,864.0" fill="none" stroke="#777" stroke-width="1.5" stroke-linejoin="round" stroke-linecap="round"/>
<rect x="552.8" y="839.0" width="146.0" height="50.0" rx="10" fill="white" stroke="#111"/>
<text x="625.8" y="871.0" text-anchor="middle" font-size="18">♅︎ Uranus</text>
<polyline points="275.6,723.3 433.9,504.3" fill="none" stroke="#777" stroke-width="1.5" stroke-linejoin="round" stroke-linecap="round"/>
<rect x="354.4" y="479.3" width="159.0" height="50.0" rx="10" fill="white" stroke="#111"/>
<text x="433.9" y="511.3" text-anchor="middle" font-size="18">♆︎ Neptune</text>
<polyline points="467.2,344.4 483.6,369.5 425.1,407.9 524.7,432.3" fill="none" stroke="#777" stroke-width="1.5" stroke-linejoin="round" stroke-linecap="round"/>
<rect x="458.2" y="407.3" width="133.0" height="50.0" rx="10" fill="white" stroke="#111"/>
<text x="524.7" y="439.3" text-anchor="middle" font-size="18">♇︎ Pluto</text>
<text x="700" y="682" text-anchor="middle" font-size="28" font-weight="700">Tropical ecliptic longitude</text>
<text x="700" y="722" text-anchor="middle" font-size="22">0° Aries at 9:00 · zodiac increases counterclockwise</text>
<text x="700" y="757" text-anchor="middle" font-size="22">12 equal sectors · 30° each</text>
</svg>
